<?xml version="1.0" encoding="utf-8"?>
<!-- Svg Vector Icons : http://www.onlinewebfonts.com/icon -->
<!DOCTYPE svg PUBLIC "-//W3C//DTD SVG 1.1//EN" "http://www.w3.org/Graphics/SVG/1.1/DTD/svg11.dtd">
<svg version="1.1" xmlns="http://www.w3.org/2000/svg" xmlns:xlink="http://www.w3.org/1999/xlink" x="0px" y="0px" viewBox="0 0 1000 1000" enable-background="new 0 0 1000 1000" xml:space="preserve">
<metadata> Svg Vector Icons : http://www.onlinewebfonts.com/icon </metadata>
<g><path d="M903.4,500c0,3.9-1.3,7.5-3.3,10.4l-6.8,5.9L633.7,740.7v-0.8c6.6-4.4,10.9-11.3,10.9-19V605c11.3-7.9,18.7-21,18.7-35.8V430.9c0-14.8-7.4-28-18.7-35.9V277.2c0-4.9-1.7-9.5-4.7-13.3l253.5,219.9l6.6,5.7C902.1,492.4,903.4,496.1,903.4,500z"/><path d="M846.3,672.1v230.4c0,48.3-39.2,87.5-87.5,87.5H184.1c-48.3,0-87.5-39.2-87.5-87.5v-805c0-48.4,39.3-87.5,87.5-87.5h574.7c48.3,0,87.5,39.2,87.5,87.5v227.6l-77.2-71V97.5c0-5.7-4.6-10.3-10.3-10.3H184.1c-5.7,0-10.4,4.6-10.4,10.3v805c0,5.8,4.7,10.4,10.4,10.4h395.4l2.3,2.5l2.7-2.5h174.2c5.7,0,10.3-4.6,10.3-10.4V743.1L846.3,672.1z"/><path d="M663.2,430.9v138.2c0,14.8-7.4,27.9-18.7,35.8V395C655.9,402.9,663.2,416.1,663.2,430.9z"/><path d="M644.6,605v115.9c0,7.7-4.3,14.6-10.9,19l0.2-129.5C637.7,609.1,641.3,607.3,644.6,605z"/><path d="M644.6,395V605c-3.3,2.3-6.8,4.1-10.7,5.5l0.4-220.7C638,391,641.4,392.8,644.6,395z"/><path d="M644.6,277.2V395c-3.2-2.2-6.6-4-10.3-5.3l0.2-130.5l5.4,4.7C642.8,267.7,644.6,272.3,644.6,277.2z"/><path d="M639.9,263.9l-5.4-4.7l-0.2,130.5c-4.6-1.7-9.6-2.6-14.8-2.6H588v-110c0-13.3,12.6-24.1,28.3-24.1c7.8,0,14.9,2.7,20,7.1C637.6,261.3,638.8,262.5,639.9,263.9z"/><path d="M634.3,389.7l-0.4,220.7c-4.5,1.6-9.3,2.4-14.4,2.4H588V387.1h31.5C624.7,387.1,629.7,388,634.3,389.7z"/><path d="M633.9,610.4l-0.2,129.5c-4.8,3.2-10.8,5.1-17.4,5.1c-7.8,0-14.9-2.7-20-7.1c-5.1-4.4-8.3-10.4-8.3-17v-108h31.5C624.6,612.9,629.4,612,633.9,610.4z"/><path d="M588,387.1v225.7H361.7c-24.1,0-43.8-19.6-43.8-43.7V430.9c0-24.2,19.6-43.8,43.8-43.8L588,387.1L588,387.1z"/></g>
</svg>